<?xml version="1.0" encoding="UTF-8"?>
<svg id="Layer_2" data-name="Layer 2" xmlns="http://www.w3.org/2000/svg" viewBox="0 0 303.89 321.16">
  <g id="Layer_1-2" data-name="Layer 1">
    <g>
      <path d="M297.06,48.19v272.97s-109.69-.36-109.69-.36v-23.38h84.69c1.76,0,1.18-6.5,1.24-7.75,1.56-30.5.24-62.44.36-93.15.12-31.45.51-63.11.75-94.55.08-10.01-.09-20.04-.01-30.04H56.28l-.54-.54V0h215.96l.54.54v23.38l-.54.54H80.02l-.54.54v22.66l.54.54h217.04Z"/>
      <polygon points="252.82 85.59 252.82 285.91 229.09 285.91 229.09 197.26 228.55 196.72 159.86 196.72 159.32 197.26 159.32 285.19 134.86 285.19 134.86 86.85 135.4 86.31 158.78 86.31 159.32 86.85 159.32 174.25 159.86 174.79 229.09 174.79 229.09 85.59 252.82 85.59"/>
      <polygon points="22.66 2.88 22.66 172.81 23.2 173.35 119.04 173.35 119.04 196 0 196 0 2.88 22.66 2.88"/>
      <polygon points="303.89 .36 303.89 24.1 280.69 24.1 280.16 23.56 280.16 .36 303.89 .36"/>
      <polygon points="158.96 320.08 135.22 320.08 135.22 296.88 135.76 296.34 158.42 296.34 158.96 296.88 158.96 320.08"/>
    </g>
  </g>
</svg>