<?xml version="1.0" encoding="UTF-8"?>
<svg id="Layer_2" data-name="Layer 2" xmlns="http://www.w3.org/2000/svg" viewBox="0 0 260.11 245.75">
  <defs>
    <style>
      .cls-1 {
        fill: #383839;
      }
    </style>
  </defs>
  <g id="Layer_1-2" data-name="Layer 1">
    <g>
      <path class="cls-1" d="M2.14,105.69C19.57-17.96,207.78-42.43,249.97,82.35c8.53,25.22,13.92,123.91,6.93,147.59-6.17,20.9-40.71,15.66-40.71,6.27v-104.42c0-1.75-6.47-30.41-7.72-34.05-20.07-58.71-101.04-71.95-141.25-26.16-3.56,4.05-18.1,26.66-18.1,28.89v130.52c0,16.53-46.99,16.53-46.99,0,0-36.86-4.81-91.21,0-125.3Z"/>
      <path class="cls-1" d="M169.2,238.82c-2.59,4.1-73.48,20.37-78.55-18.03-5.16-39.06-6.23-131.93,57.59-104.53,2.52,1.08,20.96,19.28,20.96,20.76,0,15.05,2.72,97.5,0,101.8Z"/>
    </g>
  </g>
</svg>