<?xml version="1.0" encoding="UTF-8"?>
<svg id="Layer_2" data-name="Layer 2" xmlns="http://www.w3.org/2000/svg" viewBox="0 0 289.09 289.2">
  <g id="Layer_1-2" data-name="Layer 1">
    <path d="M248.34,42.92c68.73,70.09,47.48,189.77-40.87,231.84C91.53,329.97-33.92,217.51,8.4,95.91,43.21-4.1,174.07-32.82,248.34,42.92ZM102.95,14.98c-3.16.46-6.9,3.76-9.35,5.8-27.16,22.66-37.37,66.88-18.12,97.49,42.02.54,72.77,37.15,64.38,78.77-7.11,35.29-42.17,57.56-77.35,50.5,1.23,2.32,7.48,3.11,10.05,3.65,31.72,6.68,67.48-7.78,83.54-36.39-34.39-72.75,57.27-132.05,109.23-71.16l9.5,15.76c-6.06-34.69-38.8-60.34-73.64-61.46-57.6,84.57-170.86-11.33-98.24-82.96Z"/>
  </g>
</svg>