<?xml version="1.0" encoding="UTF-8"?>
<svg id="Layer_2" data-name="Layer 2" xmlns="http://www.w3.org/2000/svg" viewBox="0 0 193.92 224.21">
  <g id="Layer_1-2" data-name="Layer 1">
    <path d="M106.92,0c20.93,2.31,41.06,7.91,57.47,21.93,14.95,12.77,23.52,30.37,29.53,48.74l-18.97,4.99c-11.19-44.85-52.5-62.3-96.08-54.31-38.18,7-56.61,40.41-58.99,76.67-4.11,62.56,19.25,111.42,89.53,106.06,31.27-2.39,66.86-29.04,52.69-63.38-2.09-5.05-8.73-14.05-13.71-16.23-2.48-1.08-2.51,6.39-2.94,7.97-16.57,61.54-100.1,42.24-89.28-7.25,6.63-30.3,46.91-32.24,71.74-28.63-2.31-27.28-38.73-33.34-53.57-12.86l-15.99-10.01c15.65-28.34,64.29-28.51,80.98-.93,5.92,9.78,6.83,18.82,9.13,29.73,65.56,34.53,34.2,111.47-32.17,120.4C32.31,234.19-6.65,171.49.93,95.09,6.21,41.76,34.49,3.72,90.92,0h16ZM127.86,116.54c-13.09-3.21-50.03-4.52-52.87,13.45-3.2,20.18,22.06,25.07,36.93,18.85,11.32-4.73,16.4-20.93,15.94-32.3Z"/>
  </g>
</svg>